<?xml version="1.0" encoding="UTF-8"?>
<!DOCTYPE svg PUBLIC "-//W3C//DTD SVG 1.1//EN" "http://www.w3.org/Graphics/SVG/1.1/DTD/svg11.dtd">
<!-- Creator: CorelDRAW X7 -->
<svg xmlns="http://www.w3.org/2000/svg" xml:space="preserve" width="21cm" height="29.7cm" version="1.1" style="shape-rendering:geometricPrecision; text-rendering:geometricPrecision; image-rendering:optimizeQuality; fill-rule:evenodd; clip-rule:evenodd"
viewBox="0 0 21000 29700"
 xmlns:xlink="http://www.w3.org/1999/xlink"
 xmlns:dc="http://purl.org/dc/elements/1.1/"
 xmlns:cc="http://creativecommons.org/ns#"
 xmlns:rdf="http://www.w3.org/1999/02/22-rdf-syntax-ns#"
 xmlns:svg="http://www.w3.org/2000/svg"
 xmlns:sodipodi="http://sodipodi.sourceforge.net/DTD/sodipodi-0.dtd"
 xmlns:inkscape="http://www.inkscape.org/namespaces/inkscape"
 inkscape:version="0.91 r13725"
 sodipodi:docname="InkscapeTest.svg">
 <defs>
  <style type="text/css">
   <![CDATA[
    .str1 {stroke:black;stroke-width:28.22}
    .str0 {stroke:#FC00D7;stroke-width:28.22}
    .fil0 {fill:none}
    .fil1 {fill:blue}
   ]]>
  </style>
 </defs>
 <g id="Layer_x0020_1">
  <metadata id="CorelCorpID_0Corel-Layer"/>
  <sodipodi:namedview id="base" pagecolor="#ffffff" bordercolor="#666666" borderopacity="1.0" inkscape:pageopacity="0.0" inkscape:pageshadow="2" inkscape:zoom="0.49497475" inkscape:cx="334.7542" inkscape:cy="483.06638" inkscape:document-units="px" inkscape:current-layer="layer1" showgrid="false" inkscape:window-width="1536" inkscape:window-height="801" inkscape:window-x="-8" inkscape:window-y="-8" inkscape:window-maximized="1"/>
  <g id="layer1" inkscape:label="Ebene 1" inkscape:groupmode="layer">
   <ellipse id="path3336" class="fil0 str0" cx="6443" cy="7378" rx="3649" ry="1739"/>
   <rect id="rect3338" class="fil1 str1" x="8211" y="10599" width="4789" height="2680"/>
   <path id="path3340" class="fil0 str1" d="M13000 4270c178,-65 334,-57 513,-57 38,0 78,-12 114,0 26,9 35,42 57,57 36,24 75,41 114,57 57,19 114,38 171,57 19,19 33,45 57,57 17,9 40,-8 57,0 24,12 38,38 57,57 62,62 165,186 228,228 16,11 44,-13 57,0 118,118 -180,-4 57,114 17,9 44,-13 57,0 29,29 -28,143 0,171 118,118 -4,-180 115,57 11,23 -12,160 0,172 13,13 43,-14 57,0 13,13 0,38 0,57 0,19 6,39 0,57 -14,40 -44,73 -57,114 -7,18 0,38 0,57 0,57 11,115 0,171 -30,147 -52,78 -115,171 -47,70 -66,157 -114,228 -14,22 -48,31 -57,57 -10,32 0,231 0,285 0,26 -8,154 0,171 119,237 -4,-61 114,57 14,13 -8,40 0,57 63,126 36,18 114,57 238,119 -60,-4 58,114 13,13 40,-8 57,0 48,24 69,84 114,114 35,24 78,33 114,57 22,15 33,45 57,57 91,46 191,74 285,114 39,17 74,41 114,57 111,45 230,70 342,114 39,16 73,47 114,57 37,9 77,-9 114,0 41,10 74,41 114,57 37,15 240,70 285,114 13,14 -13,44 0,57 29,29 143,-28 171,0 2,2 0,157 0,171 0,171 0,342 0,513 0,57 -25,121 0,172 9,17 44,-14 57,0 27,26 -17,80 0,114 12,24 45,33 57,57 9,17 0,145 0,171 0,133 0,266 0,399" inkscape:connector-curvature="0"/>
   <polygon id="path3342" class="fil0 str0" points="4048,14077 3282,14835 3473,15896 2515,15402 1565,15910 1739,14847 962,14101 2027,13938 2496,12968 2981,13930 " sodipodi:type="star" sodipodi:sides="5" sodipodi:cx="88.893425" sodipodi:cy="516.98138" sodipodi:r1="57.49889" sodipodi:r2="28.749445" sodipodi:arg1="-0.32175055" sodipodi:arg2="0.30656798" inkscape:flatsided="false" inkscape:rounded="0" inkscape:randomized="0" inkscape:transform-center-x="0.13488175" inkscape:transform-center-y="-5.3622171"/>
  </g>
 </g>
</svg>
