<?xml version="1.0" encoding="UTF-8" standalone="no"?>
<!-- Created with Inkscape (http://www.inkscape.org/) -->

<svg
   xmlns:dc="http://purl.org/dc/elements/1.1/"
   xmlns:cc="http://creativecommons.org/ns#"
   xmlns:rdf="http://www.w3.org/1999/02/22-rdf-syntax-ns#"
   xmlns:svg="http://www.w3.org/2000/svg"
   xmlns="http://www.w3.org/2000/svg"
   xmlns:sodipodi="http://sodipodi.sourceforge.net/DTD/sodipodi-0.dtd"
   xmlns:inkscape="http://www.inkscape.org/namespaces/inkscape"
   width="21cm"
   height="29.700001cm"
   viewBox="0 0 744.09449 1052.3622"
   id="svg2"
   version="1.1"
   inkscape:version="0.91 r13725"
   sodipodi:docname="ink_cm.svg">
  <defs
     id="defs4" />
  <sodipodi:namedview
     id="base"
     pagecolor="#ffffff"
     bordercolor="#666666"
     borderopacity="1.0"
     inkscape:pageopacity="0.0"
     inkscape:pageshadow="2"
     inkscape:zoom="0.49497475"
     inkscape:cx="334.7542"
     inkscape:cy="483.06638"
     inkscape:document-units="px"
     inkscape:current-layer="layer1"
     showgrid="false"
     inkscape:window-width="1536"
     inkscape:window-height="801"
     inkscape:window-x="-8"
     inkscape:window-y="-8"
     inkscape:window-maximized="1"
     units="cm" />
  <metadata
     id="metadata7">
    <rdf:RDF>
      <cc:Work
         rdf:about="">
        <dc:format>image/svg+xml</dc:format>
        <dc:type
           rdf:resource="http://purl.org/dc/dcmitype/StillImage" />
        <dc:title></dc:title>
      </cc:Work>
    </rdf:RDF>
  </metadata>
  <g
     inkscape:label="Ebene 1"
     inkscape:groupmode="layer"
     id="layer1">
    <ellipse
       style="fill:none;stroke:#fc00d7;stroke-opacity:1"
       id="path3336"
       cx="228.29448"
       cy="261.41275"
       rx="129.29953"
       ry="61.619305" />
    <rect
       style="fill:#0000ff;fill-rule:evenodd;stroke:#000000;stroke-width:1px;stroke-linecap:butt;stroke-linejoin:miter;stroke-opacity:1"
       id="rect3338"
       width="169.70564"
       height="94.954353"
       x="290.92392"
       y="375.56" />
    <path
       style="fill:none;fill-rule:evenodd;stroke:#000000;stroke-width:1px;stroke-linecap:butt;stroke-linejoin:miter;stroke-opacity:1"
       d="m 460.62956,151.30613 c 6.29232,-2.30048 11.83409,-2.0203 18.18275,-2.0203 1.34687,0 2.76285,-0.42592 4.04061,0 0.9035,0.30117 1.22787,1.49202 2.0203,2.0203 1.25294,0.8353 2.64247,1.46105 4.04061,2.02031 2.02031,0.67343 4.04061,1.34687 6.06092,2.0203 0.67343,0.67344 1.16847,1.59439 2.0203,2.02031 0.60234,0.30117 1.41797,-0.30117 2.02031,0 0.85183,0.42592 1.34687,1.34687 2.0203,2.02031 2.19897,2.19896 5.82232,6.57528 8.08122,8.08122 0.56033,0.37355 1.54412,-0.4762 2.02031,0 4.18008,4.18008 -6.38772,-0.16341 2.0203,4.04061 0.60234,0.30116 1.54412,-0.47619 2.02031,0 1.01015,1.01015 -1.01015,5.05076 0,6.06091 4.18008,4.18008 -0.1634,-6.38772 4.04061,2.02031 0.40052,0.80103 -0.41303,5.64789 0,6.06091 0.47619,0.47619 1.54411,-0.47619 2.0203,0 0.47619,0.47619 0,1.34687 0,2.02031 0,0.67343 0.21296,1.38142 0,2.0203 -0.47619,1.42857 -1.54411,2.61204 -2.0203,4.04061 -0.21296,0.63888 0,1.34687 0,2.02031 0,2.0203 0.39621,4.07984 0,6.06091 -1.04632,5.23157 -1.84089,2.76134 -4.04061,6.06092 -1.67059,2.50588 -2.37003,5.57534 -4.04061,8.08122 -0.52829,0.79243 -1.71914,1.11679 -2.02031,2.0203 -0.38309,1.14928 0,8.19873 0,10.10153 0,0.90986 -0.30742,5.44607 0,6.06091 4.20402,8.40803 -0.13947,-2.15977 4.04061,2.02031 0.47619,0.47619 -0.30117,1.41796 0,2.0203 2.23351,4.46701 1.25389,0.62695 4.04061,2.02031 8.40803,4.20401 -2.15978,-0.13947 2.02031,4.04061 0.47619,0.47619 1.41796,-0.30117 2.0203,0 1.70367,0.85183 2.45576,2.98404 4.04061,4.04061 1.25294,0.83529 2.78767,1.18501 4.04061,2.0203 0.79243,0.52829 1.16847,1.59439 2.02031,2.02031 3.24369,1.62185 6.76819,2.61204 10.10152,4.04061 1.3841,0.59318 2.64247,1.46105 4.04061,2.0203 3.95455,1.58182 8.16729,2.4588 12.12183,4.04061 1.39815,0.55926 2.57973,1.65509 4.04061,2.02031 1.30666,0.32666 2.73396,-0.32666 4.04062,0 1.46088,0.36522 2.64246,1.46105 4.04061,2.0203 1.31496,0.52599 8.5222,2.46129 10.10152,4.04062 0.47619,0.47619 -0.47619,1.54411 0,2.0203 1.01015,1.01015 5.05076,-1.01015 6.06092,0 0.065,0.065 0,5.57094 0,6.06092 0,6.06091 0,12.12183 0,18.18274 0,2.02031 -0.90351,4.2539 0,6.06092 0.30117,0.60234 1.54411,-0.47619 2.0203,0 0.95238,0.95238 -0.60234,2.83593 0,4.04061 0.42592,0.85183 1.59439,1.16847 2.02031,2.0203 0.30742,0.61485 0,5.15106 0,6.06092 0,4.71404 0,9.42809 0,14.14213"
       id="path3340"
       inkscape:connector-curvature="0" />
    <path
       sodipodi:type="star"
       style="fill:none;stroke:#fc00d7;stroke-opacity:1"
       id="path3342"
       sodipodi:sides="5"
       sodipodi:cx="88.893425"
       sodipodi:cy="516.98138"
       sodipodi:r1="57.49889"
       sodipodi:r2="28.749445"
       sodipodi:arg1="-0.32175055"
       sodipodi:arg2="0.30656798"
       inkscape:flatsided="false"
       inkscape:rounded="0"
       inkscape:randomized="0"
       d="m 143.44166,498.79864 -27.13924,26.85899 6.74016,37.58343 L 89.111668,545.73 55.450524,563.75418 61.619307,526.07276 34.075425,499.62889 71.81885,493.85154 88.456939,459.48415 105.61488,493.59498 Z"
       inkscape:transform-center-x="0.13488175"
       inkscape:transform-center-y="-5.3622171" />
  </g>
</svg>
